<svg width="520" height="520" viewBox="0 0 520 520" fill="none" xmlns="http://www.w3.org/2000/svg">
<g clip-path="url(#clip0_2001_59108)">
<path d="M36.7587 38.5517C38.8153 36.4951 40.2158 33.8749 40.7832 31.0224C41.3506 28.1698 41.0594 25.2131 39.9464 22.526C38.8334 19.839 36.9486 17.5424 34.5303 15.9265C32.1121 14.3107 29.269 13.4482 26.3605 13.4482C23.4521 13.4482 20.609 14.3107 18.1907 15.9265C15.7725 17.5424 13.8877 19.839 12.7747 22.526C11.6616 25.2131 11.3704 28.1698 11.9378 31.0224C12.5052 33.8749 13.9058 36.4951 15.9623 38.5517M26.3602 29.348L21.6425 23.0722" stroke="white" stroke-width="3.4" stroke-linecap="round"/>
</g>
<g clip-path="url(#clip1_2001_59108)">
<path d="M36.7587 90.5517C38.8153 88.4951 40.2158 85.8749 40.7832 83.0224C41.3506 80.1698 41.0594 77.2131 39.9464 74.526C38.8334 71.839 36.9486 69.5424 34.5303 67.9265C32.1121 66.3107 29.269 65.4482 26.3605 65.4482C23.4521 65.4482 20.609 66.3107 18.1907 67.9265C15.7725 69.5424 13.8877 71.839 12.7747 74.526C11.6616 77.2131 11.3704 80.1698 11.9378 83.0224C12.5052 85.8749 13.9058 88.4951 15.9623 90.5517M26.3602 81.348L21.6425 75.0722" stroke="white" stroke-width="3.4" stroke-linecap="round"/>
</g>
<g clip-path="url(#clip2_2001_59108)">
<path d="M36.7587 142.552C38.8153 140.495 40.2158 137.875 40.7832 135.022C41.3506 132.17 41.0594 129.213 39.9464 126.526C38.8334 123.839 36.9486 121.542 34.5303 119.927C32.1121 118.311 29.269 117.448 26.3605 117.448C23.4521 117.448 20.609 118.311 18.1907 119.927C15.7725 121.542 13.8877 123.839 12.7747 126.526C11.6616 129.213 11.3704 132.17 11.9378 135.022C12.5052 137.875 13.9058 140.495 15.9623 142.552M26.3602 133.348L21.6425 127.072" stroke="white" stroke-width="3.4" stroke-linecap="round"/>
</g>
<g clip-path="url(#clip3_2001_59108)">
<path d="M90.1599 17.4474C90.1599 17.0155 89.6793 16.7573 89.3192 16.9957L74.5921 26.7461C74.2686 26.9603 74.2686 27.4352 74.5921 27.6494L89.3192 37.3998C89.6793 37.6382 90.1599 37.38 90.1599 36.9481L90.1599 17.4474Z" fill="white"/>
<path d="M70.9953 16.4391C70.9953 15.944 70.5938 15.5426 70.0987 15.5426H68.3056C67.8104 15.5426 67.409 15.944 67.409 16.4391L67.409 37.9564C67.409 38.4515 67.8104 38.8529 68.3056 38.8529H70.0987C70.5938 38.8529 70.9952 38.4515 70.9952 37.9564L70.9953 27.1977V16.4391Z" fill="white"/>
</g>
<g clip-path="url(#clip4_2001_59108)">
<path d="M90.1599 69.4474C90.1599 69.0155 89.6793 68.7573 89.3192 68.9957L74.5921 78.7461C74.2686 78.9603 74.2686 79.4352 74.5921 79.6494L89.3192 89.3998C89.6793 89.6382 90.1599 89.38 90.1599 88.9481L90.1599 69.4474Z" fill="white"/>
<path d="M70.9953 68.4391C70.9953 67.944 70.5938 67.5426 70.0987 67.5426H68.3056C67.8104 67.5426 67.409 67.944 67.409 68.4391L67.409 89.9564C67.409 90.4515 67.8104 90.8529 68.3056 90.8529H70.0987C70.5938 90.8529 70.9952 90.4515 70.9952 89.9564L70.9953 79.1977V68.4391Z" fill="white"/>
</g>
<g clip-path="url(#clip5_2001_59108)">
<path d="M90.1599 121.447C90.1599 121.016 89.6793 120.757 89.3192 120.996L74.5921 130.746C74.2686 130.96 74.2686 131.435 74.5921 131.649L89.3192 141.4C89.6793 141.638 90.1599 141.38 90.1599 140.948L90.1599 121.447Z" fill="white"/>
<path d="M70.9953 120.439C70.9953 119.944 70.5938 119.543 70.0987 119.543H68.3056C67.8104 119.543 67.409 119.944 67.409 120.439L67.409 141.956C67.409 142.452 67.8104 142.853 68.3056 142.853H70.0987C70.5938 142.853 70.9952 142.452 70.9952 141.956L70.9953 131.198V120.439Z" fill="white"/>
</g>
<g clip-path="url(#clip6_2001_59108)">
<path d="M144.345 12.1034C144.84 12.1034 145.241 12.5048 145.241 13V14.7931C145.241 15.2883 144.84 15.6897 144.345 15.6897L117.448 15.6897C116.953 15.6897 116.552 15.2883 116.552 14.7931V13C116.552 12.5049 116.953 12.1035 117.448 12.1035L144.345 12.1034Z" fill="white"/>
<path d="M144.345 20.1724C144.84 20.1724 145.241 20.5738 145.241 21.069V22.8621C145.241 23.3572 144.84 23.7586 144.345 23.7586H130C129.505 23.7586 129.103 23.3572 129.103 22.8621V21.069C129.103 20.5738 129.505 20.1724 130 20.1724H144.345Z" fill="white"/>
<path d="M144.345 28.2414C144.84 28.2414 145.241 28.6428 145.241 29.1379V30.931C145.241 31.4262 144.84 31.8276 144.345 31.8276H130C129.505 31.8276 129.103 31.4262 129.103 30.931V29.1379C129.103 28.6428 129.505 28.2414 130 28.2414L144.345 28.2414Z" fill="white"/>
<path d="M144.345 36.3103C144.84 36.3103 145.241 36.7117 145.241 37.2069V39C145.241 39.4952 144.84 39.8966 144.345 39.8966L117.448 39.8966C116.953 39.8966 116.552 39.4952 116.552 39V37.2069C116.552 36.7117 116.953 36.3103 117.448 36.3103L144.345 36.3103Z" fill="white"/>
<path d="M116.552 21.01C116.552 20.652 116.951 20.4384 117.249 20.637L124.958 25.7764C125.224 25.9539 125.224 26.345 124.958 26.5224L117.249 31.6618C116.951 31.8604 116.552 31.6469 116.552 31.2888L116.552 21.01Z" fill="white"/>
</g>
<g clip-path="url(#clip7_2001_59108)">
<path d="M144.345 64.1034C144.84 64.1034 145.241 64.5048 145.241 65V66.7931C145.241 67.2883 144.84 67.6897 144.345 67.6897L117.448 67.6897C116.953 67.6897 116.552 67.2883 116.552 66.7931V65C116.552 64.5049 116.953 64.1035 117.448 64.1035L144.345 64.1034Z" fill="white"/>
<path d="M144.345 72.1724C144.84 72.1724 145.241 72.5738 145.241 73.069V74.8621C145.241 75.3572 144.84 75.7586 144.345 75.7586H130C129.505 75.7586 129.103 75.3572 129.103 74.8621V73.069C129.103 72.5738 129.505 72.1724 130 72.1724H144.345Z" fill="white"/>
<path d="M144.345 80.2414C144.84 80.2414 145.241 80.6428 145.241 81.1379V82.931C145.241 83.4262 144.84 83.8276 144.345 83.8276H130C129.505 83.8276 129.103 83.4262 129.103 82.931V81.1379C129.103 80.6428 129.505 80.2414 130 80.2414L144.345 80.2414Z" fill="white"/>
<path d="M144.345 88.3103C144.84 88.3103 145.241 88.7117 145.241 89.2069V91C145.241 91.4952 144.84 91.8966 144.345 91.8966L117.448 91.8966C116.953 91.8966 116.552 91.4952 116.552 91V89.2069C116.552 88.7117 116.953 88.3103 117.448 88.3103L144.345 88.3103Z" fill="white"/>
<path d="M116.552 73.01C116.552 72.652 116.951 72.4384 117.249 72.637L124.958 77.7764C125.224 77.9539 125.224 78.345 124.958 78.5224L117.249 83.6618C116.951 83.8604 116.552 83.6469 116.552 83.2888L116.552 73.01Z" fill="white"/>
</g>
<g clip-path="url(#clip8_2001_59108)">
<path d="M144.345 116.103C144.84 116.103 145.241 116.505 145.241 117V118.793C145.241 119.288 144.84 119.69 144.345 119.69L117.448 119.69C116.953 119.69 116.552 119.288 116.552 118.793V117C116.552 116.505 116.953 116.103 117.448 116.103L144.345 116.103Z" fill="white"/>
<path d="M144.345 124.172C144.84 124.172 145.241 124.574 145.241 125.069V126.862C145.241 127.357 144.84 127.759 144.345 127.759H130C129.505 127.759 129.103 127.357 129.103 126.862V125.069C129.103 124.574 129.505 124.172 130 124.172H144.345Z" fill="white"/>
<path d="M144.345 132.241C144.84 132.241 145.241 132.643 145.241 133.138V134.931C145.241 135.426 144.84 135.828 144.345 135.828H130C129.505 135.828 129.103 135.426 129.103 134.931V133.138C129.103 132.643 129.505 132.241 130 132.241L144.345 132.241Z" fill="white"/>
<path d="M144.345 140.31C144.84 140.31 145.241 140.712 145.241 141.207V143C145.241 143.495 144.84 143.897 144.345 143.897L117.448 143.897C116.953 143.897 116.552 143.495 116.552 143V141.207C116.552 140.712 116.953 140.31 117.448 140.31L144.345 140.31Z" fill="white"/>
<path d="M116.552 125.01C116.552 124.652 116.951 124.438 117.249 124.637L124.958 129.776C125.224 129.954 125.224 130.345 124.958 130.522L117.249 135.662C116.951 135.86 116.552 135.647 116.552 135.289L116.552 125.01Z" fill="white"/>
</g>
<g clip-path="url(#clip9_2001_59108)">
<path d="M170.625 16.2496C170.625 15.8178 171.105 15.5596 171.465 15.798L186.192 25.5483C186.516 25.7625 186.516 26.2375 186.192 26.4516L171.465 36.202C171.105 36.4404 170.625 36.1822 170.625 35.7504L170.625 16.2496Z" fill="white"/>
<path d="M189.789 15.2414C189.789 14.7462 190.191 14.3448 190.686 14.3448H192.479C192.974 14.3448 193.375 14.7462 193.375 15.2414L193.375 36.7586C193.375 37.2538 192.974 37.6552 192.479 37.6552H190.686C190.191 37.6552 189.789 37.2538 189.789 36.7586L189.789 15.2414Z" fill="white"/>
</g>
<g clip-path="url(#clip10_2001_59108)">
<path d="M170.625 68.2496C170.625 67.8178 171.105 67.5596 171.465 67.798L186.192 77.5483C186.516 77.7625 186.516 78.2375 186.192 78.4516L171.465 88.202C171.105 88.4404 170.625 88.1822 170.625 87.7504L170.625 68.2496Z" fill="white"/>
<path d="M189.789 67.2414C189.789 66.7462 190.191 66.3448 190.686 66.3448H192.479C192.974 66.3448 193.375 66.7462 193.375 67.2414L193.375 88.7586C193.375 89.2538 192.974 89.6552 192.479 89.6552H190.686C190.191 89.6552 189.789 89.2538 189.789 88.7586L189.789 67.2414Z" fill="white"/>
</g>
<g clip-path="url(#clip11_2001_59108)">
<path d="M170.625 120.25C170.625 119.818 171.105 119.56 171.465 119.798L186.192 129.548C186.516 129.763 186.516 130.237 186.192 130.452L171.465 140.202C171.105 140.44 170.625 140.182 170.625 139.75L170.625 120.25Z" fill="white"/>
<path d="M189.789 119.241C189.789 118.746 190.191 118.345 190.686 118.345H192.479C192.974 118.345 193.375 118.746 193.375 119.241L193.375 140.759C193.375 141.254 192.974 141.655 192.479 141.655H190.686C190.191 141.655 189.789 141.254 189.789 140.759L189.789 119.241Z" fill="white"/>
</g>
<path fill-rule="evenodd" clip-rule="evenodd" d="M219.372 23.7153C219.137 23.9051 219 24.1911 219 24.4933V41.1854C219 41.7377 219.448 42.1854 220 42.1854H248C248.552 42.1854 249 41.7377 249 41.1854V24.4933C249 24.1911 248.863 23.9051 248.628 23.7153L234.628 12.4095C234.262 12.1135 233.738 12.1135 233.372 12.4095L219.372 23.7153ZM236 30.0721H232V40.1665H236V30.0721Z" fill="white"/>
<path fill-rule="evenodd" clip-rule="evenodd" d="M219.372 75.7153C219.137 75.9051 219 76.1911 219 76.4933V93.1854C219 93.7377 219.448 94.1854 220 94.1854H248C248.552 94.1854 249 93.7377 249 93.1854V76.4933C249 76.1911 248.863 75.9051 248.628 75.7153L234.628 64.4095C234.262 64.1135 233.738 64.1135 233.372 64.4095L219.372 75.7153ZM236 82.0721H232V92.1665H236V82.0721Z" fill="white"/>
<path fill-rule="evenodd" clip-rule="evenodd" d="M219.372 127.715C219.137 127.905 219 128.191 219 128.493V145.185C219 145.738 219.448 146.185 220 146.185H248C248.552 146.185 249 145.738 249 145.185V128.493C249 128.191 248.863 127.905 248.628 127.715L234.628 116.41C234.262 116.113 233.738 116.113 233.372 116.41L219.372 127.715ZM236 134.072H232V144.167H236V134.072Z" fill="white"/>
<path d="M298.6 13.4004L273.4 38.6004M273.4 13.4004L298.6 38.6004" stroke="white" stroke-width="4" stroke-linecap="round" stroke-linejoin="round"/>
<path d="M298.6 65.4004L273.4 90.6004M273.4 65.4004L298.6 90.6004" stroke="white" stroke-width="4" stroke-linecap="round" stroke-linejoin="round"/>
<path d="M298.6 117.4L273.4 142.6M273.4 117.4L298.6 142.6" stroke="white" stroke-width="4" stroke-linecap="round" stroke-linejoin="round"/>
<path d="M320.193 19.0154V9.19238C320.193 8.6401 320.641 8.19238 321.193 8.19238H330.383" stroke="white" stroke-width="4" stroke-linecap="square"/>
<path d="M355.807 19.0154V9.19238C355.807 8.6401 355.36 8.19238 354.807 8.19238H345.554" stroke="white" stroke-width="4" stroke-linecap="square"/>
<path d="M320.193 32.6653V42.4883C320.193 43.0406 320.641 43.4883 321.193 43.4883H330.383" stroke="white" stroke-width="4" stroke-linecap="square"/>
<path d="M355.807 32.6653V42.4883C355.807 43.0406 355.36 43.4883 354.807 43.4883H345.554" stroke="white" stroke-width="4" stroke-linecap="square"/>
<path d="M320.193 71.0154V61.1924C320.193 60.6401 320.641 60.1924 321.193 60.1924H330.383" stroke="white" stroke-width="4" stroke-linecap="square"/>
<path d="M355.807 71.0154V61.1924C355.807 60.6401 355.36 60.1924 354.807 60.1924H345.554" stroke="white" stroke-width="4" stroke-linecap="square"/>
<path d="M320.193 84.6653V94.4883C320.193 95.0406 320.641 95.4883 321.193 95.4883H330.383" stroke="white" stroke-width="4" stroke-linecap="square"/>
<path d="M355.807 84.6653V94.4883C355.807 95.0406 355.36 95.4883 354.807 95.4883H345.554" stroke="white" stroke-width="4" stroke-linecap="square"/>
<path d="M320.193 123.015V113.192C320.193 112.64 320.641 112.192 321.193 112.192H330.383" stroke="white" stroke-width="4" stroke-linecap="square"/>
<path d="M355.807 123.015V113.192C355.807 112.64 355.36 112.192 354.807 112.192H345.554" stroke="white" stroke-width="4" stroke-linecap="square"/>
<path d="M320.193 136.665V146.488C320.193 147.041 320.641 147.488 321.193 147.488H330.383" stroke="white" stroke-width="4" stroke-linecap="square"/>
<path d="M355.807 136.665V146.488C355.807 147.041 355.36 147.488 354.807 147.488H345.554" stroke="white" stroke-width="4" stroke-linecap="square"/>
<path fill-rule="evenodd" clip-rule="evenodd" d="M383.945 10.5842C384.494 10.0059 385.409 9.98242 385.987 10.5319L399.415 23.2886C399.989 23.834 400.314 24.5912 400.314 25.3831C400.314 26.1749 399.989 26.9321 399.415 27.4775L385.987 40.2343C385.409 40.7837 384.494 40.7603 383.945 40.1819L381.955 38.0875C381.406 37.5091 381.429 36.5948 382.007 36.0454L393.231 25.3831L382.007 14.7207C381.429 14.1713 381.406 13.257 381.955 12.6787L383.945 10.5842Z" fill="white"/>
<path fill-rule="evenodd" clip-rule="evenodd" d="M383.945 62.5842C384.494 62.0059 385.409 61.9824 385.987 62.5319L399.415 75.2886C399.989 75.834 400.314 76.5912 400.314 77.3831C400.314 78.1749 399.989 78.9321 399.415 79.4775L385.987 92.2343C385.409 92.7837 384.494 92.7603 383.945 92.1819L381.955 90.0875C381.406 89.5091 381.429 88.5948 382.007 88.0454L393.231 77.3831L382.007 66.7207C381.429 66.1713 381.406 65.257 381.955 64.6787L383.945 62.5842Z" fill="white"/>
<path fill-rule="evenodd" clip-rule="evenodd" d="M383.945 114.584C384.494 114.006 385.409 113.982 385.987 114.532L399.415 127.289C399.989 127.834 400.314 128.591 400.314 129.383C400.314 130.175 399.989 130.932 399.415 131.478L385.987 144.234C385.409 144.784 384.494 144.76 383.945 144.182L381.955 142.087C381.406 141.509 381.429 140.595 382.007 140.045L393.231 129.383L382.007 118.721C381.429 118.171 381.406 117.257 381.955 116.679L383.945 114.584Z" fill="white"/>
<defs>
<clipPath id="clip0_2001_59108">
<rect width="52" height="52" fill="white"/>
</clipPath>
<clipPath id="clip1_2001_59108">
<rect width="52" height="52" fill="white" transform="translate(0 52)"/>
</clipPath>
<clipPath id="clip2_2001_59108">
<rect width="52" height="52" fill="white" transform="translate(0 104)"/>
</clipPath>
<clipPath id="clip3_2001_59108">
<rect width="52" height="52" fill="white" transform="translate(52)"/>
</clipPath>
<clipPath id="clip4_2001_59108">
<rect width="52" height="52" fill="white" transform="translate(52 52)"/>
</clipPath>
<clipPath id="clip5_2001_59108">
<rect width="52" height="52" fill="white" transform="translate(52 104)"/>
</clipPath>
<clipPath id="clip6_2001_59108">
<rect width="52" height="52" fill="white" transform="translate(104)"/>
</clipPath>
<clipPath id="clip7_2001_59108">
<rect width="52" height="52" fill="white" transform="translate(104 52)"/>
</clipPath>
<clipPath id="clip8_2001_59108">
<rect width="52" height="52" fill="white" transform="translate(104 104)"/>
</clipPath>
<clipPath id="clip9_2001_59108">
<rect width="52" height="52" fill="white" transform="translate(156)"/>
</clipPath>
<clipPath id="clip10_2001_59108">
<rect width="52" height="52" fill="white" transform="translate(156 52)"/>
</clipPath>
<clipPath id="clip11_2001_59108">
<rect width="52" height="52" fill="white" transform="translate(156 104)"/>
</clipPath>
</defs>
</svg>
